<?xml version="1.0" encoding="iso-8859-1"?>
<!-- Generator: Adobe Illustrator 19.0.0, SVG Export Plug-In . SVG Version: 6.00 Build 0)  -->
<svg version="1.1" id="Layer_1" xmlns="http://www.w3.org/2000/svg" xmlns:xlink="http://www.w3.org/1999/xlink" x="0px" y="0px"
	 viewBox="0 0 512 512" style="enable-background:new 0 0 512 512;" xml:space="preserve">
<polygon style="fill:#FFFFFF;" points="478.608,144.696 478.608,100.174 445.217,100.174 445.217,66.783 411.826,66.783 
	411.826,33.391 345.043,33.391 345.043,0 166.957,0 166.957,33.391 100.173,33.391 100.173,66.783 66.781,66.783 66.781,100.174 
	33.391,100.174 33.391,144.696 0,144.696 0,300.522 33.391,300.522 33.391,345.043 66.781,345.043 66.781,378.435 100.174,378.435 
	100.174,445.217 66.783,445.217 66.783,512 267.13,512 267.13,478.609 345.043,478.609 345.043,445.217 411.825,445.217 
	411.825,411.826 445.217,411.826 445.217,378.435 478.608,378.435 478.608,333.913 512,333.913 512,144.696 "/>
<g>
	<rect x="100.173" y="189.217" style="fill:#A5001E;" width="66.783" height="66.783"/>
	<rect x="222.609" y="189.217" style="fill:#A5001E;" width="66.783" height="66.783"/>
	<rect x="345.043" y="189.217" style="fill:#A5001E;" width="66.783" height="66.783"/>
</g>
<polygon points="66.781,345.043 66.781,300.522 33.391,300.522 33.391,345.043 66.781,345.043 66.781,378.435 100.174,378.435 
	100.174,345.043 "/>
<polygon points="100.173,66.783 66.781,66.783 66.781,100.174 33.391,100.174 33.391,144.696 0,144.696 0,300.522 33.391,300.522 
	33.391,144.696 66.783,144.696 66.783,100.174 100.173,100.174 100.173,66.783 166.957,66.783 166.957,33.391 100.173,33.391 "/>
<polygon points="411.826,33.391 345.043,33.391 345.043,0 166.957,0 166.957,33.391 345.042,33.391 345.042,66.783 411.825,66.783 
	411.825,100.174 445.217,100.174 445.217,66.783 411.826,66.783 "/>
<polygon points="478.608,144.696 478.608,100.174 445.217,100.174 445.217,144.696 478.608,144.696 478.608,333.913 512,333.913 
	512,144.696 "/>
<rect x="445.217" y="333.913" width="33.39" height="44.522"/>
<polygon points="345.042,445.217 267.13,445.217 267.13,478.609 100.174,478.609 100.174,445.217 66.783,445.217 66.783,512 
	267.13,512 267.13,478.609 345.042,478.609 345.042,445.217 411.825,445.217 411.825,411.826 345.042,411.826 "/>
<polygon points="133.564,411.826 166.955,411.826 166.955,378.435 100.174,378.435 100.174,445.217 133.564,445.217 "/>
<rect x="411.826" y="378.435" width="33.391" height="33.391"/>
<g>
</g>
<g>
</g>
<g>
</g>
<g>
</g>
<g>
</g>
<g>
</g>
<g>
</g>
<g>
</g>
<g>
</g>
<g>
</g>
<g>
</g>
<g>
</g>
<g>
</g>
<g>
</g>
<g>
</g>
</svg>
